<svg width="128" height="104" viewBox="0 0 128 104" fill="none" xmlns="http://www.w3.org/2000/svg">
<path d="M84.224 7.19264C84.224 7.19264 64.4096 1.46848 44.9613 10.583C25.513 19.6976 15.6928 37.7873 7.26528 52.2787C-1.16224 66.7701 3.68128 81.5131 18.5293 88.2336C33.3773 94.9541 43.4714 85.047 64.2995 84.5645C85.1277 84.0819 90.7366 86.5009 108.032 76.9413C125.327 67.3816 128.438 44.8032 114.806 28.0987C101.174 11.3942 84.224 7.19264 84.224 7.19264Z" fill="#4081FF"/>
<path opacity="0.7" d="M84.224 7.19264C84.224 7.19264 64.4096 1.46848 44.9613 10.583C25.513 19.6976 15.6928 37.7873 7.26528 52.2787C-1.16224 66.7701 3.68128 81.5131 18.5293 88.2336C33.3773 94.9541 43.4714 85.047 64.2995 84.5645C85.1277 84.0819 90.7366 86.5009 108.032 76.9413C125.327 67.3816 128.438 44.8032 114.806 28.0987C101.174 11.3942 84.224 7.19264 84.224 7.19264Z" fill="white"/>
<path d="M38.144 21.2368C37.161 20.8 36.713 21.164 36.352 20.8C35.9911 20.436 37.3376 19.4917 34.6522 18.5453C34.6522 18.5453 34.473 16.509 30.8122 16.4362C27.1514 16.3634 28.1165 18.4725 27.136 18.9821C26.1556 19.4917 25.8816 18.6909 24.896 19.1901C23.9104 19.6893 24.361 20.7168 23.5546 20.8541C22.7482 20.9914 21.6756 20.1989 20.69 20.7085C19.7044 21.2181 19.712 21.6736 19.2564 21.6736C18.8007 21.6736 17.9124 21.3824 17.3748 21.6736C16.8372 21.9648 16.2125 22.3267 16.2125 22.3267H38.8583C38.8583 22.3267 39.1271 21.6736 38.144 21.2368Z" stroke="#263238" stroke-width="0.686672" stroke-linecap="round" stroke-linejoin="round"/>
<path d="M24.7451 20.9373C24.6171 20.997 24.4836 21.0485 24.3457 21.0912" stroke="#263238" stroke-width="0.686672" stroke-linecap="round" stroke-linejoin="round"/>
<path d="M29.5911 17.5406C29.369 17.6217 29.1738 17.7445 29.0215 17.8989C28.8693 18.0534 28.7644 18.235 28.7156 18.4288C28.5518 19.0944 28.1703 19.5374 27.7326 19.5811C27.2948 19.6248 25.6564 19.4938 25.385 19.9805C25.312 20.124 25.2604 20.2742 25.2314 20.4277" stroke="#263238" stroke-width="0.686672" stroke-linecap="round" stroke-linejoin="round"/>
<path d="M104.704 31.46C103.936 31.1209 103.59 31.4038 103.314 31.1209C103.037 30.8381 104.082 30.1038 101.99 29.3696C101.99 29.3696 101.852 27.7846 98.9978 27.7285C96.1434 27.6723 96.9114 29.3113 96.1459 29.7086C95.3805 30.1059 95.1731 29.4819 94.4077 29.8771C93.6423 30.2723 93.9879 31.0648 93.3632 31.1771C92.7386 31.2894 91.9015 30.6696 91.136 31.0648C90.3706 31.46 90.368 31.799 90.0224 31.799C89.6768 31.799 88.9779 31.5744 88.5607 31.799C88.1434 32.0237 87.657 32.3086 87.657 32.3086H105.262C105.262 32.3086 105.472 31.799 104.704 31.46Z" stroke="#263238" stroke-width="0.686672" stroke-linecap="round" stroke-linejoin="round"/>
<path d="M94.29 31.2291C94.1898 31.2738 94.0864 31.3134 93.9802 31.3477" stroke="#263238" stroke-width="0.686672" stroke-linecap="round" stroke-linejoin="round"/>
<path d="M98.048 28.5875C97.8755 28.6506 97.7241 28.7461 97.6061 28.8662C97.4881 28.9863 97.407 29.1275 97.3696 29.2781C97.2416 29.7939 96.9446 30.1392 96.6016 30.1746C96.2586 30.2099 94.9888 30.1059 94.7763 30.4845C94.7195 30.5959 94.68 30.7125 94.6586 30.8318" stroke="#263238" stroke-width="0.686672" stroke-linecap="round" stroke-linejoin="round"/>
<path d="M92.5287 31.1043H93.7498" stroke="#263238" stroke-width="0.686672" stroke-linecap="round" stroke-linejoin="round"/>
<path d="M103.314 31.1043H111.542C111.542 31.1043 112.202 29.4923 109.778 28.417C107.354 27.3416 106.25 28.2381 105.37 27.3416C104.489 26.4451 107.794 24.1176 101.179 21.7901C101.179 21.7901 100.739 16.7731 91.7069 16.5901C82.6753 16.4071 85.0945 21.605 82.6676 22.8592C80.2407 24.1135 79.5828 22.1437 77.1559 23.3979C74.729 24.6522 75.8349 27.1586 73.8509 27.5163C71.8669 27.8741 69.2199 25.9043 66.7956 27.1586C64.3713 28.4128 64.3713 29.4882 63.2679 29.4882C62.1645 29.4882 59.9604 28.7706 58.6369 29.4882C57.3133 30.2058 55.7722 31.1002 55.7722 31.1002H91.1361" stroke="#263238" stroke-width="0.686672" stroke-linecap="round" stroke-linejoin="round"/>
<path d="M76.7821 27.6807C76.4656 27.8252 76.1371 27.9517 75.7991 28.0592" stroke="#263238" stroke-width="0.686672" stroke-linecap="round" stroke-linejoin="round"/>
<path d="M77.9777 26.416C78.0496 26.0392 78.1759 25.6706 78.354 25.3178C79.0273 24.1155 83.0644 24.4421 84.1396 24.3339C85.2148 24.2258 86.1569 23.1317 86.5613 21.4906C86.6804 21.0134 86.9378 20.5661 87.3123 20.1859C87.6867 19.8057 88.1673 19.5035 88.7143 19.3045" stroke="#263238" stroke-width="0.686672" stroke-linecap="round" stroke-linejoin="round"/>
<path d="M6.49722 10.5102C8.22778 9.30106 9.92592 8.07386 11.5916 6.82863C9.38149 6.28783 7.1816 5.71306 4.99194 5.10431C5.45445 6.90559 5.95621 8.70756 6.49722 10.5102Z" fill="#4081FF"/>
<path d="M14.2004 12.3739C15.8626 11.1051 17.4908 9.82312 19.0848 8.52798C16.8576 8.06622 14.639 7.56979 12.4288 7.0387C12.9784 8.81502 13.5689 10.5934 14.2004 12.3739Z" fill="#263238"/>
<path d="M21.6934 13.9152C23.2891 12.5909 24.8473 11.2514 26.368 9.89659C24.1271 9.5111 21.8905 9.09025 19.6582 8.63403C20.2982 10.3965 20.9766 12.1569 21.6934 13.9152Z" fill="#4081FF"/>
<path d="M29.5193 15.2443C31.04 13.8674 32.5265 12.4751 33.9789 11.0677C31.7192 10.7612 29.4656 10.4187 27.2179 10.0402C27.9483 11.7763 28.7155 13.511 29.5193 15.2443Z" fill="#263238"/>
<path d="M37.1201 16.2676C38.569 14.8407 39.983 13.4007 41.362 11.9475C39.0853 11.7145 36.818 11.4476 34.5601 11.1467C35.3724 12.8592 36.2258 14.5662 37.1201 16.2676Z" fill="#4081FF"/>
<path d="M45.0227 17.056C46.388 15.5806 47.7235 14.0927 49.0291 12.5923C46.7507 12.4384 44.4765 12.2498 42.2067 12.0266C43.1078 13.7155 44.0465 15.392 45.0227 17.056Z" fill="#263238"/>
<path d="M52.6746 17.5697C53.9699 16.0444 55.2294 14.5142 56.4531 12.9792C54.173 12.9001 51.8929 12.7864 49.6128 12.6381C50.5958 14.2896 51.6164 15.9335 52.6746 17.5697Z" fill="#4081FF"/>
<path d="M60.6233 17.8297C61.8402 16.2655 63.0186 14.6903 64.1587 13.1039C61.8751 13.1039 59.5925 13.0686 57.3107 12.9979C58.379 14.6203 59.4833 16.2309 60.6233 17.8297Z" fill="#263238"/>
<path d="M68.2957 17.8214C69.4324 16.2198 70.5314 14.6099 71.593 12.9916C69.3112 13.0665 67.0285 13.106 64.745 13.1102C65.8919 14.691 67.0754 16.2614 68.2957 17.8214Z" fill="#4081FF"/>
<path d="M76.2445 17.5448C77.2975 15.9058 78.313 14.2591 79.2909 12.6048C77.0125 12.7587 74.7315 12.8773 72.448 12.9605C73.6785 14.4997 74.944 16.0278 76.2445 17.5448Z" fill="#263238"/>
<path d="M83.8963 17.0206C84.8657 15.3483 85.7983 13.6697 86.6943 11.9849C84.4228 12.2137 82.1486 12.4072 79.8719 12.5652C81.1793 14.0628 82.5207 15.548 83.8963 17.0206Z" fill="#4081FF"/>
<path d="M91.8016 16.2094C92.6874 14.5038 93.5339 12.7941 94.3411 11.0801C92.0815 11.388 89.8185 11.6605 87.552 11.8976C88.9344 13.348 90.3509 14.7853 91.8016 16.2094Z" fill="#263238"/>
<path d="M99.3946 15.1694C100.193 13.4347 100.954 11.6979 101.678 9.95898C99.4338 10.3417 97.181 10.6884 94.9197 10.999C96.3772 12.4023 97.8688 13.7924 99.3946 15.1694Z" fill="#4081FF"/>
<path d="M107.215 13.8216C107.93 12.0619 108.604 10.2973 109.235 8.52795C107.006 8.98971 104.769 9.41542 102.523 9.80507C104.054 11.1626 105.618 12.5014 107.215 13.8216Z" fill="#263238"/>
<path d="M114.706 12.272C115.331 10.4887 115.918 8.70549 116.467 6.92224C114.248 7.45749 112.03 7.95808 109.811 8.424C111.409 9.72053 113.04 11.0032 114.706 12.272Z" fill="#4081FF"/>
<path d="M122.404 10.3833C122.936 8.58067 123.432 6.77801 123.891 4.97534C121.705 5.58825 119.507 6.16718 117.297 6.71214C118.971 7.9546 120.673 9.17833 122.404 10.3833Z" fill="#263238"/>
<path d="M126.172 4.39293C86.1212 16.1074 42.2961 16.1074 2.24512 4.39293L2.304 4.26605C42.3185 15.9703 86.1039 15.9703 126.118 4.26605C126.134 4.30765 126.152 4.34925 126.172 4.39293Z" fill="#263238"/>
<path d="M40.8038 83.1313H50.6368V92.9073C50.6368 93.6797 50.2592 94.4203 49.5871 94.9664C48.9149 95.5125 48.0033 95.8193 47.0528 95.8193H44.3878C43.4373 95.8193 42.5257 95.5125 41.8536 94.9664C41.1814 94.4203 40.8038 93.6797 40.8038 92.9073V83.1313Z" fill="#263238" stroke="#263238" stroke-linecap="round" stroke-linejoin="round"/>
<path d="M105.779 83.1313H115.612V92.9073C115.612 93.6797 115.235 94.4203 114.562 94.9664C113.89 95.5125 112.979 95.8193 112.028 95.8193H109.363C108.413 95.8193 107.501 95.5125 106.829 94.9664C106.157 94.4203 105.779 93.6797 105.779 92.9073V83.1313Z" fill="#263238" stroke="#263238" stroke-linecap="round" stroke-linejoin="round"/>
<path d="M119.34 56.784C118.595 56.0768 115.607 55.7731 114.112 55.6712C112.617 55.5692 112.246 56.682 112.246 57.695C112.246 58.708 112.502 60.2222 112.246 60.6278L111.99 61.0313L109.133 54.964L102.694 44.4974C102.349 43.9255 101.775 43.4657 101.066 43.1932C100.724 43.0648 100.366 42.9651 99.9987 42.8958L77.1994 42.432C76.5611 42.4195 75.9228 42.4195 75.2845 42.432L55.04 42.8958C54.7501 43.0104 54.5151 43.1998 54.3719 43.4345C54.3719 43.4345 46.6535 56.0768 45.7831 57.8968C44.9127 59.7168 44.4135 61.2248 44.4135 61.2248C44.2535 61.1123 44.1261 60.9725 44.0402 60.8153C43.9544 60.6582 43.9123 60.4877 43.9168 60.3158C43.9168 59.7085 43.9168 56.3638 43.6608 55.8646C43.4048 55.3654 39.0528 55.8646 37.1891 56.7756C35.3255 57.6867 36.4416 59.4048 38.0595 60.114C39.1898 60.5649 40.4142 60.8394 41.6691 60.9232L43.2896 62.843C43.2896 62.843 41.1725 64.6651 40.9242 65.2704C40.6759 65.8756 39.6775 72.3424 39.6775 74.3745C39.6775 76.4067 40.0512 83.2728 40.6733 84.2857C41.2954 85.2987 42.9133 86.528 43.776 86.7214C44.6387 86.9148 79.5008 87.7323 79.5008 87.7323L111.501 87.1249C111.501 87.1249 114.365 87.8321 115.484 83.1729C116.603 78.5137 116.355 74.5763 116.355 71.9409C116.355 69.3056 116.099 65.6697 115.61 64.8689C115.121 64.0681 113.618 63.0489 113.37 62.7452C113.121 62.4416 113.992 60.5196 113.992 60.5196C113.992 60.5196 118.472 60.216 119.342 59.7105C120.213 59.2051 120.087 57.4912 119.34 56.784Z" fill="#4081FF" stroke="#263238" stroke-linecap="round" stroke-linejoin="round"/>
<path d="M54.615 56.2536C54.615 56.2536 50.944 58.9846 64.256 60.112C77.568 61.2393 91.904 63.207 94.976 64.324L98.0326 65.443L104.448 62.9595C104.448 62.9595 101.376 60.112 93.1277 58.9846C84.8793 57.8572 69.2864 57.123 63.9437 55.6337C58.6009 54.1444 54.615 55.0118 54.615 56.2536Z" fill="white"/>
<path d="M62.0057 76.2278L63.3139 79.6536" stroke="#263238" stroke-linecap="round" stroke-linejoin="round"/>
<path d="M94.8685 76.2278L93.5603 79.6536" stroke="#263238" stroke-linecap="round" stroke-linejoin="round"/>
<path d="M46.3181 58.6393C46.3181 58.6393 46.9632 61.4765 50.3629 62.8201C53.7626 64.1638 61.7575 67.9723 61.7575 67.9723" stroke="#263238" stroke-linecap="round" stroke-linejoin="round"/>
<path d="M110.19 58.6393C110.19 58.6393 109.548 61.4765 106.148 62.8201C102.748 64.1638 94.7507 67.9723 94.7507 67.9723" stroke="#263238" stroke-linecap="round" stroke-linejoin="round"/>
<path d="M48.6169 73.7984L54.5894 79.1731" stroke="#263238" stroke-linecap="round" stroke-linejoin="round"/>
<path d="M107.341 73.9461L101.827 79.6224" stroke="#263238" stroke-linecap="round" stroke-linejoin="round"/>
<path d="M96.1306 69.4657H98.8033" stroke="#263238" stroke-linecap="round" stroke-linejoin="round"/>
<path d="M60.7462 69.4657H57.5104" stroke="#263238" stroke-linecap="round" stroke-linejoin="round"/>
<path d="M39.9795 80.1819C40.1485 82.0997 40.384 83.8261 40.6707 84.2941C41.2953 85.3049 42.9133 86.5176 43.7837 86.7214C44.6541 86.9253 79.5084 87.7323 79.5084 87.7323L111.508 87.1249C111.508 87.1249 114.373 87.8321 115.492 83.1729C115.748 82.1329 115.922 81.1345 116.052 80.1736L39.9795 80.1819Z" fill="#757575" stroke="#263238" stroke-linecap="round" stroke-linejoin="round"/>
<path d="M65.6026 83.2H62.5767L59.0157 87.2165C68.7437 87.4744 79.4957 87.724 79.4957 87.724L97.6948 87.3787L94.0058 83.2H90.9799L78.29 83.3809L65.6026 83.2Z" fill="#ABABAB" stroke="#263238" stroke-linecap="round" stroke-linejoin="round"/>
<path d="M54.1158 44.7491C54.1158 44.7491 48.2637 57.2894 48.2637 57.695C48.2637 58.1006 83.6173 57.5931 83.6173 57.5931H107.776C107.776 57.5931 108.524 57.1896 108.15 55.7731C107.776 54.3566 101.804 45.0528 101.804 45.0528C101.804 45.0528 79.7696 44.3435 73.1725 44.3435C66.5753 44.3435 54.1158 44.7491 54.1158 44.7491Z" fill="#263238" stroke="#263238" stroke-linecap="round" stroke-linejoin="round"/>
<path opacity="0.2" d="M52.1882 49.6974L61.8061 57.6783H55.1552L50.345 53.8532L52.1882 49.6974Z" fill="white"/>
<path opacity="0.2" d="M71.7338 45.0778L107.341 55.3842L105.812 52.156L85.4886 45.0778H71.7338Z" fill="white"/>
<path d="M100.193 53.3749H78.249L79.1041 47.4781H99.3357L100.193 53.3749Z" fill="white" stroke="#263238" stroke-linecap="round" stroke-linejoin="round"/>
<path d="M82.3347 50.0094L82.2963 50.4046H81.2365L81.047 52.1331H80.535L80.9754 48.256H82.7494L82.7162 48.6325H81.4362L81.2851 50.0094H82.3347Z" fill="#263238"/>
<path d="M83.0311 49.1546C83.0797 48.5846 83.4484 48.2206 84.1319 48.2206C84.8154 48.2206 85.1405 48.5846 85.1073 49.1546L84.9921 51.168C84.9562 51.7774 84.5748 52.183 83.8477 52.183C83.1207 52.183 82.8033 51.767 82.857 51.168L83.0311 49.1546ZM83.3665 51.1805C83.3383 51.5466 83.5021 51.7608 83.8785 51.7608C84.2548 51.7608 84.4468 51.5528 84.4724 51.1805L84.6029 49.1338C84.626 48.7968 84.4724 48.595 84.1063 48.595C83.7402 48.595 83.5559 48.803 83.5303 49.1338L83.3665 51.1805Z" fill="#263238"/>
<path d="M86.6278 48.256C87.3292 48.256 87.6185 48.5513 87.6057 49.1067V49.4145C87.6057 49.8305 87.4137 50.0989 87.0169 50.2029C87.4342 50.3089 87.5852 50.6001 87.575 51.0224L87.5622 51.6464C87.542 51.8123 87.57 51.9797 87.6441 52.1352H87.1116C87.0433 51.9772 87.0188 51.8088 87.04 51.6422L87.0579 51.0182C87.0579 50.5731 86.8326 50.4337 86.4051 50.4337H86.0416L85.9673 52.1414H85.4553L85.632 48.256H86.6278ZM86.4307 50.0323C86.8377 50.0323 87.0835 49.9221 87.0963 49.5061V49.1441C87.0963 48.8072 86.9632 48.6325 86.5843 48.6325H86.0953L86.0339 50.0323H86.4307Z" fill="#263238"/>
<path d="M91.0976 49.1504V49.2523H90.624V49.1275C90.624 48.7906 90.4576 48.595 90.0992 48.595C89.7408 48.595 89.5872 48.7906 89.5872 49.1234C89.5872 49.9782 91.1232 50.0594 91.1616 51.1638C91.177 51.7712 90.8442 52.1726 90.1222 52.1726C89.4003 52.1726 89.065 51.7712 89.0675 51.1638V50.9371H89.5514V51.1867C89.5514 51.5466 89.7306 51.7608 90.1043 51.7608C90.4781 51.7608 90.6496 51.5528 90.6445 51.1867C90.6266 50.309 89.088 50.2258 89.0906 49.1504C89.0906 48.5722 89.4106 48.2206 90.0813 48.2206C90.752 48.2206 91.0822 48.5846 91.0976 49.1504Z" fill="#263238"/>
<path d="M92.1395 51.3177L91.991 52.1331H91.5072L92.2419 48.256H92.9638L94.0723 52.1331H93.5475L93.3197 51.3177H92.1395ZM92.1907 50.9371H93.2275L92.5978 48.7219L92.1907 50.9371Z" fill="#263238"/>
<path d="M94.4845 52.1331L94.208 48.256H94.72L94.976 51.7192H96.3149L96.3559 52.1352L94.4845 52.1331Z" fill="#263238"/>
<path d="M98.1606 49.92L98.2067 50.3069H97.0829L97.2365 51.7171H98.6445L98.6957 52.1331H96.768L96.3635 48.256H98.2016L98.2502 48.6325H96.9011L97.0419 49.9221L98.1606 49.92Z" fill="#263238"/>
<path d="M109.755 63.856C109.755 63.856 105.027 64.8669 102.787 66.0795C100.547 67.2921 99.5481 68.0014 98.8032 69.6155C98.0582 71.2296 98.048 73.8753 98.048 73.8753C98.048 73.8753 110.246 72.4609 112.363 71.448C114.481 70.435 114.603 68.2136 114.726 67.4045C114.798 66.8964 114.757 66.3821 114.603 65.8861L109.755 63.856Z" fill="white" stroke="#263238" stroke-linecap="round" stroke-linejoin="round"/>
<path d="M101.798 70.2395V72.7272" stroke="#263238" stroke-linecap="round" stroke-linejoin="round"/>
<path d="M101.798 69.1912V69.6842" stroke="#263238" stroke-linecap="round" stroke-linejoin="round"/>
<path d="M103.212 68.7481V72.2841" stroke="#263238" stroke-linecap="round" stroke-linejoin="round"/>
<path d="M104.627 71.1901V71.839" stroke="#263238" stroke-linecap="round" stroke-linejoin="round"/>
<path d="M104.627 68.3051V70.6763" stroke="#263238" stroke-linecap="round" stroke-linejoin="round"/>
<path d="M106.04 67.8621V71.396" stroke="#263238" stroke-linecap="round" stroke-linejoin="round"/>
<path d="M107.453 70.4766V70.9529" stroke="#263238" stroke-linecap="round" stroke-linejoin="round"/>
<path d="M107.453 67.419V69.9213" stroke="#263238" stroke-linecap="round" stroke-linejoin="round"/>
<path d="M108.869 66.976V70.5099" stroke="#263238" stroke-linecap="round" stroke-linejoin="round"/>
<path d="M110.282 69.0497V70.0669" stroke="#263238" stroke-linecap="round" stroke-linejoin="round"/>
<path d="M110.282 66.5309V68.3758" stroke="#263238" stroke-linecap="round" stroke-linejoin="round"/>
<path d="M111.698 66.0878V69.6238" stroke="#263238" stroke-linecap="round" stroke-linejoin="round"/>
<path d="M46.5562 63.856C46.5562 63.856 51.287 64.8669 53.527 66.0795C55.767 67.2921 56.7629 68.0014 57.5104 69.6155C58.2579 71.2296 58.2579 73.8629 58.2579 73.8629C58.2579 73.8629 46.0595 72.4485 43.9424 71.4355C41.8253 70.4225 41.7024 68.2011 41.577 67.392C41.5067 66.8838 41.5492 66.3696 41.7024 65.8736L46.5562 63.856Z" fill="white" stroke="#263238" stroke-linecap="round" stroke-linejoin="round"/>
<path d="M54.1824 70.2395V72.7272" stroke="#263238" stroke-linecap="round" stroke-linejoin="round"/>
<path d="M54.1824 69.1912V69.6842" stroke="#263238" stroke-linecap="round" stroke-linejoin="round"/>
<path d="M52.7693 68.7481V72.2841" stroke="#263238" stroke-linecap="round" stroke-linejoin="round"/>
<path d="M51.3536 71.1901V71.839" stroke="#263238" stroke-linecap="round" stroke-linejoin="round"/>
<path d="M51.3536 68.3051V70.6763" stroke="#263238" stroke-linecap="round" stroke-linejoin="round"/>
<path d="M49.9406 67.8621V71.396" stroke="#263238" stroke-linecap="round" stroke-linejoin="round"/>
<path d="M48.5248 70.4766V70.9529" stroke="#263238" stroke-linecap="round" stroke-linejoin="round"/>
<path d="M48.5248 67.419V69.9213" stroke="#263238" stroke-linecap="round" stroke-linejoin="round"/>
<path d="M47.1117 66.976V70.5099" stroke="#263238" stroke-linecap="round" stroke-linejoin="round"/>
<path d="M45.696 69.0497V70.0669" stroke="#263238" stroke-linecap="round" stroke-linejoin="round"/>
<path d="M45.696 66.5309V68.3758" stroke="#263238" stroke-linecap="round" stroke-linejoin="round"/>
<path d="M44.2828 66.0878V69.6238" stroke="#263238" stroke-linecap="round" stroke-linejoin="round"/>
<path d="M61.952 75.739C61.3594 73.6772 60.9564 71.5824 60.7462 69.472L64.0563 68.2781L77.5936 68.4237L92.8205 68.2781L96.1305 69.472C95.9241 71.5843 95.5245 73.6812 94.935 75.7453L61.952 75.739ZM63.7209 80.444C64.6297 82.316 65.5488 83.5349 66.2809 83.8781C67.3664 84.3918 69.9597 85.2634 77.6294 84.941C86.9555 85.2634 89.5513 84.3918 90.6368 83.8781C91.3587 83.5349 92.2777 82.3243 93.1968 80.444H63.7209Z" fill="#263238" stroke="#263238" stroke-linecap="round" stroke-linejoin="round"/>
<path d="M96.1305 69.472L92.8205 68.2781L77.5936 68.4237L64.0563 68.2781L60.7462 69.472C60.7462 69.472 60.759 69.6197 60.7872 69.888L71.5929 71.0445L73.2467 71.7912H83.5379L85.1942 71.0445L96.087 69.888C96.1177 69.6197 96.1305 69.472 96.1305 69.472Z" fill="#757575" stroke="#263238" stroke-linecap="round" stroke-linejoin="round"/>
<path d="M92.8205 68.2718L77.5936 68.4174L64.0563 68.2718L62.8147 68.719H69.4784L71.1321 69.2432H86.1133L87.3062 68.7939H94.2694L92.8205 68.2718Z" fill="#263238" stroke="#263238" stroke-linecap="round" stroke-linejoin="round"/>
<path d="M61.2992 72.827L62.2182 71.9305H64.6067C66.0902 72.239 67.5983 72.4635 69.12 72.6024C71.6032 72.827 89.431 72.6024 89.431 72.6024L92.6464 72.0054H94.464L95.383 73.1993L83.6198 74.2393L81.6 74.8363H74.624L72.8781 74.0147L61.2992 72.827Z" fill="#757575" stroke="#263238" stroke-linecap="round" stroke-linejoin="round"/>
<path d="M93.184 74.3954L89.879 75.296H66.9056L63.5955 74.3995L61.5475 74.2144C61.6627 74.7053 61.8035 75.2169 61.9468 75.7432H94.935C95.0656 75.2835 95.191 74.8342 95.2908 74.3995L93.184 74.3954Z" fill="#757575" stroke="#263238" stroke-linecap="round" stroke-linejoin="round"/>
<path d="M55.3242 85.1469L56.2433 83.8032C55.2905 82.624 53.8608 81.7522 52.201 81.3384C49.3517 80.5917 46.226 80.2193 45.2148 80.5168C44.2036 80.8142 43.9348 82.9816 44.114 83.5785C44.2932 84.1755 45.138 84.6997 45.138 84.6997L55.3242 85.1469Z" fill="#474747"/>
<path d="M52.201 81.3384C50.7463 80.9559 49.2533 80.6775 47.7389 80.5064C47.538 80.5773 47.3571 80.6811 47.2078 80.8114C47.0585 80.9417 46.9439 81.0956 46.8711 81.2635C46.226 82.5344 46.3181 83.4309 47.2372 84.4001C47.3779 84.5498 47.5346 84.689 47.7057 84.8161L55.3242 85.151L56.2433 83.8073C55.2914 82.6266 53.8615 81.7532 52.201 81.3384Z" fill="#263238"/>
<path d="M51.0055 82.7944C51.0055 83.0971 50.895 83.3931 50.688 83.6449C50.4809 83.8966 50.1867 84.0929 49.8424 84.2087C49.4981 84.3246 49.1193 84.3549 48.7538 84.2958C48.3883 84.2368 48.0525 84.091 47.789 83.8769C47.5255 83.6628 47.3461 83.39 47.2734 83.093C47.2007 82.7961 47.238 82.4883 47.3806 82.2085C47.5232 81.9288 47.7647 81.6897 48.0746 81.5215C48.3844 81.3533 48.7487 81.2635 49.1213 81.2635C49.3689 81.2632 49.614 81.3026 49.8428 81.3795C50.0715 81.4563 50.2794 81.5691 50.4544 81.7113C50.6294 81.8535 50.7682 82.0223 50.8628 82.2082C50.9573 82.3941 51.0058 82.5933 51.0055 82.7944Z" fill="#ABABAB" stroke="#263238" stroke-linecap="round" stroke-linejoin="round"/>
<path d="M101.315 85.1469L100.396 83.8032C101.352 82.623 102.785 81.7513 104.448 81.3384C107.295 80.5917 110.42 80.2193 111.432 80.5168C112.443 80.8142 112.712 82.9816 112.535 83.5785C112.358 84.1755 111.524 84.6997 111.524 84.6997L101.315 85.1469Z" fill="#474747"/>
<path d="M104.448 81.3384C105.903 80.9554 107.396 80.677 108.91 80.5064C109.111 80.5775 109.292 80.6814 109.441 80.8116C109.59 80.9419 109.705 81.0957 109.778 81.2635C110.42 82.5344 110.328 83.4309 109.409 84.4001C109.269 84.5498 109.112 84.689 108.941 84.8161L101.322 85.151L100.403 83.8073C101.357 82.6268 102.787 81.7536 104.448 81.3384Z" fill="#263238"/>
<path d="M109.254 83.3718C109.651 82.5901 109.192 81.6953 108.23 81.3732C107.268 81.0512 106.167 81.4239 105.77 82.2056C105.374 82.9873 105.832 83.8821 106.795 84.2042C107.757 84.5262 108.858 84.1536 109.254 83.3718Z" fill="#ABABAB" stroke="#263238" stroke-linecap="round" stroke-linejoin="round"/>
<path d="M54.4973 44.6763H55.9693C55.9693 44.6763 56.4224 43.0913 57.8484 42.7252H59.0004C59.0004 42.7252 58.0813 41.8392 56.6964 41.9889C55.3114 42.1387 54.4973 43.0331 54.4973 44.6763Z" fill="white" stroke="#263238" stroke-linecap="round" stroke-linejoin="round"/>
<path d="M57.8099 42.0825C55.4777 42.5651 55.9692 44.6763 55.9692 44.6763C55.9692 44.6763 56.4224 43.0913 57.8483 42.7252H59.0003C58.6736 42.4356 58.265 42.215 57.8099 42.0825Z" fill="#263238" stroke="#263238" stroke-linecap="round" stroke-linejoin="round"/>
<path d="M101.645 44.6763H100.173C100.173 44.6763 99.7196 43.0913 98.2912 42.7252H97.1392C97.1392 42.7252 98.0582 41.8392 99.4432 41.9889C100.828 42.1387 101.645 43.0331 101.645 44.6763Z" fill="white" stroke="#263238" stroke-linecap="round" stroke-linejoin="round"/>
<path d="M98.3321 42.0825C100.664 42.5651 100.173 44.6763 100.173 44.6763C100.173 44.6763 99.7196 43.0913 98.2912 42.7252H97.1392C97.4671 42.4359 97.8764 42.2153 98.3321 42.0825Z" fill="#263238" stroke="#263238" stroke-linecap="round" stroke-linejoin="round"/>
<path d="M57.088 57.7969L70.912 56.992L73.5155 56.264C73.5155 56.264 83.4842 55.9707 90.3987 56.8464H72.8883" stroke="#8A8A8A" stroke-linecap="round" stroke-linejoin="round"/>
<path d="M110.589 38.0744L113.971 60.5238L113.513 33.5109" stroke="#263238" stroke-miterlimit="10"/>
<path d="M112.737 23.4291L113.971 60.5238L117.668 30.915" stroke="#263238" stroke-miterlimit="10"/>
<path d="M107.215 27.4393L114.089 60.1265" stroke="#263238" stroke-miterlimit="10"/>
<path d="M119.132 19.968C119.094 22.464 116.544 26.52 113.469 26.4888C110.395 26.4576 107.889 22.3579 107.999 19.8598C108.14 16.6317 110.559 14.8304 113.631 14.8678C116.703 14.9053 119.176 16.8979 119.132 19.968Z" fill="#263238" stroke="#263238" stroke-linecap="round" stroke-linejoin="round"/>
<path opacity="0.5" d="M117.284 17.5094C117.568 18.1813 117.202 18.8905 116.47 19.0965C115.738 19.3024 114.908 18.9238 114.627 18.252C114.345 17.5801 114.706 16.8709 115.441 16.6649C116.175 16.459 116.992 16.848 117.284 17.5094Z" fill="white"/>
<path d="M110.469 23.0755C111.478 25.4342 110.774 29.9499 107.871 30.7715C104.968 31.5931 100.895 28.4253 99.9527 26.0478C98.7341 22.9715 100.262 20.6086 103.165 19.787C106.069 18.9654 109.222 20.176 110.469 23.0755Z" fill="#4081FF" stroke="#263238" stroke-linecap="round" stroke-linejoin="round"/>
<path opacity="0.5" d="M107.19 21.114C107.786 21.632 107.812 22.3995 107.246 22.8321C106.68 23.2648 105.736 23.192 105.139 22.6761C104.543 22.1603 104.517 21.3886 105.083 20.956C105.649 20.5233 106.593 20.592 107.19 21.114Z" fill="white"/>
<path d="M124.186 27.1253C123.866 29.6088 120.858 33.4526 117.803 33.1905C114.749 32.9285 112.719 28.6541 113.114 26.1768C113.626 22.9736 116.244 21.3616 119.301 21.6237C122.358 21.8857 124.582 24.0635 124.186 27.1253Z" fill="#4081FF" stroke="#263238" stroke-linecap="round" stroke-linejoin="round"/>
<path opacity="0.5" d="M122.803 24.5752C123.198 25.1992 122.959 25.9521 122.268 26.2392C121.577 26.5262 120.694 26.2392 120.297 25.6152C119.9 24.9912 120.141 24.2382 120.832 23.9512C121.523 23.6641 122.406 23.9428 122.803 24.5752Z" fill="white"/>
<path d="M117.896 29.9333C117.64 32.4293 114.711 36.3085 111.647 36.0922C108.582 35.8758 106.465 31.6306 106.806 29.147C107.244 25.9355 109.829 24.2882 112.891 24.5045C115.953 24.7208 118.226 26.8674 117.896 29.9333Z" fill="#263238" stroke="#263238" stroke-linecap="round" stroke-linejoin="round"/>
<path opacity="0.5" d="M115.894 27.0545C116.178 27.7243 115.814 28.4356 115.08 28.6395C114.345 28.8433 113.521 28.4668 113.237 27.7971C112.952 27.1273 113.316 26.416 114.051 26.21C114.785 26.0041 115.61 26.3827 115.894 27.0545Z" fill="white"/>
<path d="M113.748 31.7782C114.772 34.1349 114.068 38.6526 111.165 39.4742C108.262 40.2958 104.184 37.1363 103.229 34.761C102.003 31.6846 103.526 29.3197 106.429 28.496C109.332 27.6723 112.497 28.8725 113.748 31.7782Z" fill="#4081FF" stroke="#263238" stroke-linecap="round" stroke-linejoin="round"/>
<path opacity="0.5" d="M111.155 29.952C111.846 30.3867 112.023 31.1438 111.547 31.641C111.071 32.1381 110.129 32.1942 109.437 31.7595C108.746 31.3248 108.57 30.576 109.056 30.0706C109.542 29.5651 110.464 29.5194 111.155 29.952Z" fill="white"/>
<path d="M52.795 41.1944C52.795 41.1944 54.587 41.3879 55.4907 42.6504C56.3943 43.913 59.0388 48.6075 59.0388 48.6075C59.0388 48.6075 61.6961 47.008 62.6817 46.6919C63.6673 46.3757 65.3313 47.1079 65.7102 48.229C66.0891 49.3501 65.7102 50.0365 64.7169 50.9205C63.7236 51.8045 58.9441 55.1887 57.7153 55.4175C56.4865 55.6463 55.5367 55.2656 55.1118 53.9968C54.6868 52.728 52.2727 41.5418 52.2727 41.5418C52.2727 41.5418 52.0833 41.08 52.795 41.1944Z" fill="white" stroke="#263238" stroke-miterlimit="10"/>
<path d="M35.5123 63.3423C35.4901 63.7642 35.5559 64.1861 35.7069 64.5903C35.9424 65.0666 36.4109 65.8611 36.4109 66.273C36.4109 66.6848 36.567 67.6707 36.3341 67.7976C36.1011 67.9245 35.9808 67.4482 35.9424 67.2568C35.883 67.062 35.8042 66.8714 35.7069 66.6869C35.7069 66.6869 35.904 67.9557 35.904 68.4008C35.904 68.8459 36.8026 68.8459 36.5286 69.2328C36.2547 69.6197 35.7862 69.3909 35.2 69.2328C34.6138 69.0747 33.792 68.692 33.792 67.4856C33.792 66.2792 33.833 63.6127 33.833 63.6127L35.5123 63.3423Z" fill="white" stroke="#263238" stroke-miterlimit="10"/>
<path d="M33.5361 61.9445L33.4439 63.2216C33.4268 63.4569 33.5192 63.6889 33.7027 63.8715C33.8862 64.0541 34.1474 64.174 34.4346 64.2075C34.7331 64.2425 35.0366 64.1814 35.2804 64.0373C35.5243 63.8931 35.6893 63.6773 35.7402 63.4359L36.0167 62.1338L33.5361 61.9445Z" fill="white" stroke="#263238" stroke-miterlimit="10"/>
<path d="M37.7012 41.7706C37.7012 41.7706 36.0141 41.8558 35.1616 43.4346C34.8544 44.0024 31.9821 61.0667 32.2151 61.697C32.448 62.3272 34.5396 63.0198 35.5431 62.7682C36.5466 62.5165 37.0151 62.0755 37.1712 61.5701C37.3274 61.0647 38.4103 42.4902 38.4103 42.4902C38.4269 42.4046 38.4213 42.317 38.3939 42.2331C38.3665 42.1493 38.3179 42.071 38.2512 42.0033C38.1844 41.9356 38.1011 41.8799 38.0064 41.8398C37.9117 41.7998 37.8077 41.7762 37.7012 41.7706Z" fill="white" stroke="#263238" stroke-miterlimit="10"/>
<path d="M36.4006 57.3477C36.4006 57.3477 36.4774 59.1739 36.5568 60.1806C36.6362 61.1874 40.2765 87.7635 40.0435 88.8971C39.8106 90.0307 39.1142 90.2824 39.2755 91.0374C39.4368 91.7925 39.895 93.4315 39.895 93.4315H44.544C44.544 93.4315 45.5526 92.4248 45.3965 91.6677C45.2403 90.9106 44.4672 89.465 44.4672 88.8347C44.4672 88.2045 45.1635 65.2829 45.1635 65.2829L46.3258 65.4077C46.3258 65.4077 48.4198 89.9683 48.2637 90.4717C48.1075 90.975 47.6442 91.416 47.6442 91.6677C47.6442 91.9194 48.7296 93.5563 48.7296 93.5563L54.0006 92.8637C54.0006 92.8637 54.231 90.0307 54.0774 89.465C53.9238 88.8992 53.1482 88.2669 53.1482 88.2669L54.0006 70.7616L54.9299 59.6149L54.6202 57.3477H36.4006Z" fill="#263238" stroke="#263238" stroke-miterlimit="10"/>
<path d="M54.615 57.3477H36.4006C36.4006 57.3477 36.4211 57.8074 36.4493 58.3877H54.7584L54.615 57.3477Z" fill="#757575" stroke="#263238" stroke-linecap="round" stroke-linejoin="round"/>
<path d="M39.2883 57.6867H38.464V58.8037H39.2883V57.6867Z" fill="#263238" stroke="#263238" stroke-miterlimit="10"/>
<path d="M52.0807 57.6867H51.2563V58.8037H52.0807V57.6867Z" fill="#263238" stroke="#263238" stroke-miterlimit="10"/>
<path d="M46.9069 57.3976H44.3162V58.3336H46.9069V57.3976Z" fill="white" stroke="#263238" stroke-miterlimit="10"/>
<path d="M43.095 39.8882C43.095 39.8882 37.9366 41.3879 37.7011 41.7602C37.4656 42.1325 35.9091 54.3691 35.7145 54.9474C35.52 55.5256 35.1462 56.4845 35.4765 56.9463C35.7099 57.2483 36.0154 57.5093 36.375 57.7138H54.6381C54.6381 57.7138 55.7261 57.2541 55.9181 56.4845C56.0246 55.9109 56.0246 55.3275 55.9181 54.7539L52.7974 41.184L49.5309 40.144L45.312 39.8882H43.095Z" fill="white" stroke="#263238" stroke-miterlimit="10"/>
<path d="M38.9351 54.2318L49.3056 48.9362" stroke="#263238" stroke-linecap="round" stroke-linejoin="round"/>
<path d="M37.097 55.1699L37.7345 54.8455" stroke="#263238" stroke-linecap="round" stroke-linejoin="round"/>
<path d="M41.2826 51.9584L48.7245 47.8962" stroke="#263238" stroke-linecap="round" stroke-linejoin="round"/>
<path d="M43.899 41.5792L45.3172 43.3472L43.7582 54.496L45.6014 57.0336L47.9207 54.2651L45.9803 43.3867L47.6366 41.7331L45.65 40.0026L43.899 41.5792Z" fill="#263238" stroke="#263238" stroke-miterlimit="10"/>
<path d="M43.52 37.0822L43.7581 39.5034C43.7581 39.5034 44.8461 40.9261 45.6499 40.9261C46.4538 40.9261 48.4403 39.5429 48.4403 39.5429V36.8888C48.4403 36.8888 46.3591 38.0806 45.4605 37.8893C44.7675 37.7009 44.1134 37.4288 43.52 37.0822Z" fill="white" stroke="#263238" stroke-miterlimit="10"/>
<path d="M45.4605 37.8893C44.7675 37.7009 44.1134 37.4288 43.52 37.0822L43.7351 39.2746C44.2727 39.7051 46.2797 39.6906 46.6944 39.4638C47.1091 39.2371 47.9744 38.0994 48.4403 37.2778V36.8888C48.4403 36.8888 46.3591 38.0806 45.4605 37.8893Z" fill="#263238" stroke="#263238" stroke-miterlimit="10"/>
<path d="M45.1277 40.7722L43.3306 43.3098L41.8176 40.0795L43.4739 38.5424L45.1277 40.7722Z" fill="white" stroke="#263238" stroke-miterlimit="10"/>
<path d="M46.4999 40.6578L47.9207 43.3867L49.9072 40.196L48.5837 38.7338L46.4999 40.6578Z" fill="white" stroke="#263238" stroke-miterlimit="10"/>
<path d="M49.8381 32.6102C49.8381 32.6102 50.5908 31.5702 50.9876 32.5374C51.1267 32.9156 51.1163 33.3198 50.9578 33.6929C50.7994 34.066 50.5009 34.3894 50.1044 34.6174C49.618 34.8254 49.4849 34.3304 49.4849 34.3304L49.8381 32.6102Z" fill="white" stroke="#263238" stroke-miterlimit="10"/>
<path d="M41.9251 32.7184C41.9251 32.7184 41.5258 31.7845 40.9011 32.394C40.2765 33.0034 41.2544 34.266 41.5642 34.5488C41.8739 34.8317 42.2272 34.7298 42.3168 34.5135C42.4064 34.2971 41.9251 32.7184 41.9251 32.7184Z" fill="white" stroke="#263238" stroke-miterlimit="10"/>
<path d="M41.7076 28.704C41.7076 28.704 41.2596 30.0394 41.3339 30.524C41.4081 31.0086 42.0814 34.711 42.3041 35.6221C42.5268 36.5331 43.8734 37.6854 44.1729 38.2325C44.4724 38.7795 46.7867 38.7774 47.2449 38.5362C47.7031 38.2949 48.8142 36.7744 49.1879 35.9861C49.5617 35.1978 49.9201 32.4002 49.9201 31.616C49.9201 30.8318 50.7419 29.744 50.6676 28.9474C50.5934 28.1507 48.6503 27.1253 47.6801 26.8216C46.7099 26.5179 46.2619 26.6406 45.7396 26.2163C45.2174 25.792 44.4596 25.1222 43.1975 25.4862C41.9355 25.8502 43.1975 26.7613 42.6011 26.884C42.0046 27.0067 39.762 25.3656 39.314 27.065C38.866 28.7643 41.7076 28.704 41.7076 28.704Z" fill="white" stroke="#263238" stroke-miterlimit="10"/>
<path d="M50.6701 28.9411C50.5959 28.1507 48.6528 27.1191 47.6826 26.8154C46.7123 26.5117 46.2643 26.6344 45.7421 26.2101C45.2199 25.7858 44.4621 25.116 43.2 25.48C41.9379 25.844 43.2 26.7551 42.6035 26.8778C42.0071 27.0005 39.7645 25.3594 39.3165 27.0587C38.8685 28.7581 41.7075 28.6978 41.7075 28.6978C41.7075 28.6978 41.2595 30.0331 41.3338 30.5178C41.3696 30.7466 41.536 31.6847 41.7255 32.7101L41.792 32.7538C41.792 32.7538 42.0122 32.5021 41.792 31.641C41.5719 30.7799 42.1453 30.9213 42.1453 30.5261C42.1453 30.1309 42.4986 29.1263 42.985 28.9827C43.4714 28.8392 44.3546 29.5215 45.1072 29.3051C45.8599 29.0888 46.8762 28.2984 47.849 28.6583C48.8218 29.0181 48.2893 30.5303 48.4685 30.7383C48.6477 30.9463 49.2186 31.0607 49.2186 31.8511C49.2186 32.6415 49.0419 33.3611 49.3952 33.4672C49.4563 33.4822 49.5212 33.4837 49.5833 33.4716C49.6453 33.4596 49.7023 33.4344 49.7485 33.3986C49.856 32.6435 49.9226 31.9426 49.9226 31.6056C49.92 30.8215 50.7443 29.7295 50.6701 28.9411Z" fill="#263238" stroke="#263238" stroke-miterlimit="10"/>
<path d="M44.7386 35.6179C44.7386 35.6179 46.0186 36.14 47.0554 35.3038" stroke="#263238" stroke-linecap="round" stroke-linejoin="round"/>
<path d="M44.224 31.3165L44.7104 32.1485C44.7104 32.1485 44.4006 34.8795 44.5312 34.9502C44.6618 35.0209 46.5792 34.6632 46.5792 34.3408C46.5852 34.1566 46.5067 33.9772 46.359 33.8374" stroke="#263238" stroke-linecap="round" stroke-linejoin="round"/>
<path d="M43.8656 30.3846C43.8656 30.3846 42.0967 30.3846 42.0967 30.5282C42.0967 30.6717 42.2733 30.7362 42.5396 30.7091C42.8058 30.6821 43.6429 30.6717 43.8196 30.6363C43.9962 30.601 43.8656 30.3846 43.8656 30.3846Z" fill="#263238" stroke="#263238" stroke-linecap="round" stroke-linejoin="round"/>
<path d="M47.5392 30.1974C47.5392 30.1974 45.7703 30.1974 45.7703 30.341C45.7703 30.4845 45.9469 30.549 46.2131 30.5219C46.4794 30.4949 47.3191 30.4845 47.4931 30.4491C47.6672 30.4138 47.5392 30.1974 47.5392 30.1974Z" fill="#263238" stroke="#263238" stroke-linecap="round" stroke-linejoin="round"/>
<path d="M46.9197 32.5021C46.9197 32.7205 46.8122 32.8973 46.6765 32.8973C46.5409 32.8973 46.4205 32.7205 46.4205 32.5021C46.4205 32.2837 46.5306 32.1069 46.6765 32.1069C46.8225 32.1069 46.9197 32.2837 46.9197 32.5021Z" fill="#263238"/>
<path d="M43.8246 32.5021C43.8246 32.7205 43.7171 32.8973 43.5814 32.8973C43.4458 32.8973 43.3254 32.7205 43.3254 32.5021C43.3254 32.2837 43.4355 32.1069 43.5814 32.1069C43.7274 32.1069 43.8246 32.2837 43.8246 32.5021Z" fill="#263238"/>
<path d="M59.0388 48.6138C59.0388 48.6138 56.722 50.1904 56.1537 51.1909L59.0388 48.6138Z" fill="white"/>
<path d="M59.0388 48.6138C59.0388 48.6138 56.722 50.1904 56.1537 51.1909" stroke="#263238" stroke-miterlimit="10"/>
<path d="M57.9508 49.4208C57.9508 49.4208 56.3431 50.076 55.442 50.9205L57.9508 49.4208Z" fill="white"/>
<path d="M57.9508 49.4208C57.9508 49.4208 56.3431 50.076 55.442 50.9205" stroke="#263238" stroke-miterlimit="10"/>
<path d="M70.9633 46.8853C70.9633 46.8853 72.2868 46.5775 72.5709 46.1157C72.8551 45.6539 72.8065 45.3461 72.4762 45.577C72.146 45.8079 71.7671 45.993 71.6237 46.1157C71.4804 46.2384 70.9633 46.8853 70.9633 46.8853Z" fill="white" stroke="#263238" stroke-miterlimit="10"/>
<path d="M64.2918 46.0388L63.3882 47.1536C63.2534 47.3183 63.1903 47.5148 63.2089 47.7119C63.2274 47.909 63.3266 48.0954 63.4906 48.2415C63.5934 48.3322 63.7183 48.4046 63.8573 48.4541C63.9963 48.5036 64.1465 48.5292 64.2982 48.5292C64.45 48.5292 64.6002 48.5036 64.7392 48.4541C64.8782 48.4046 65.0031 48.3322 65.1059 48.2415L66.9875 46.6045C66.9875 46.6045 70.7738 47.0663 70.9632 46.8749C71.1526 46.6836 71.767 46.3362 71.9078 45.9514C72.0486 45.5666 72.2406 45.1048 72.0026 45.2213C71.7645 45.3378 71.4906 45.8453 71.4906 45.8453L68.0371 44.0378C68.0371 44.0378 69.2659 43.4138 69.3606 42.9229C69.4554 42.432 69.2198 42.1928 68.9818 42.5069C68.7437 42.821 68.416 43.0436 67.6582 43.2744C66.9005 43.5053 65.9533 43.7362 65.623 44.198L64.2918 46.0388Z" fill="white" stroke="#263238" stroke-miterlimit="10"/>
<path d="M65.1059 48.256L66.1479 47.3491C65.7095 47.3249 65.2915 47.1897 64.9526 46.9625C64.6137 46.7353 64.371 46.4275 64.2586 46.0824L63.3882 47.1578C63.2328 47.3441 63.17 47.5715 63.2126 47.7939C63.2552 48.0164 63.3999 48.2175 63.6177 48.3567C63.8355 48.4959 64.1101 48.5629 64.3862 48.5443C64.6623 48.5256 64.9195 48.4226 65.1059 48.256Z" fill="white" stroke="#263238" stroke-miterlimit="10"/>
<path d="M66.1837 45.9992C66.1837 45.9992 67.2717 45.0778 68.0756 45.1547C68.8794 45.2317 70.1568 46.461 70.1568 46.461C70.1568 46.461 71.7184 45.1152 71.8132 45.5395C71.9079 45.9638 70.5332 46.8853 70.3002 46.9227C70.0672 46.9602 66.7034 46.6149 66.7034 46.6149" fill="white"/>
<path d="M66.1837 45.9992C66.1837 45.9992 67.2717 45.0778 68.0756 45.1547C68.8794 45.2317 70.1568 46.461 70.1568 46.461C70.1568 46.461 71.7184 45.1152 71.8132 45.5395C71.9079 45.9638 70.5332 46.8853 70.3002 46.9227C70.0672 46.9602 66.7034 46.6149 66.7034 46.6149" stroke="#263238" stroke-miterlimit="10"/>
<path d="M44.3956 93.4128C44.3956 93.4128 42.1172 91.9568 41.5643 91.8695C41.0113 91.7821 40.2535 92.3749 40.0103 92.6266C39.7671 92.8783 39.7006 93.1611 39.5956 93.2173C39.4907 93.2735 38.4231 94.0493 38.0084 94.3655C37.5937 94.6816 37.5604 95.5157 37.6987 95.6571C37.8211 95.7518 37.9786 95.811 38.1467 95.8256H44.9127C44.9738 95.5009 44.9969 95.1722 44.9819 94.8439C44.8878 94.3631 44.7396 93.8903 44.539 93.4315" fill="#757575"/>
<path d="M44.3956 93.4128C44.3956 93.4128 42.1172 91.9568 41.5643 91.8695C41.0113 91.7821 40.2535 92.3749 40.0103 92.6266C39.7671 92.8783 39.7006 93.1611 39.5956 93.2173C39.4907 93.2735 38.4231 94.0493 38.0084 94.3655C37.5937 94.6816 37.5604 95.5157 37.6987 95.6571C37.8211 95.7518 37.9786 95.811 38.1467 95.8256H44.9127C44.9738 95.5009 44.9969 95.1722 44.9819 94.8439C44.8878 94.3631 44.7396 93.8903 44.539 93.4315" stroke="#263238" stroke-linecap="round" stroke-linejoin="round"/>
<path d="M37.6321 95.3077C37.6171 95.4273 37.6418 95.548 37.7038 95.6571C37.8262 95.7518 37.9837 95.811 38.1518 95.8256H44.9178C44.9178 95.8256 44.9639 95.5926 44.9844 95.3077H37.6321Z" fill="#757575" stroke="#263238" stroke-linecap="round" stroke-linejoin="round"/>
<path d="M48.7834 93.4128C48.7834 93.4128 51.7146 91.9568 52.2676 91.8695C52.8206 91.7821 53.5783 92.3749 53.8215 92.6266C54.0647 92.8783 54.2362 93.4399 54.3335 93.496C54.4308 93.5522 55.8516 94.0576 56.2663 94.3655C56.681 94.6733 56.7169 95.5157 56.5786 95.6571C56.4549 95.7515 56.2968 95.8106 56.1281 95.8256H48.2663C48.2053 95.5009 48.1822 95.1722 48.1972 94.8439C48.2912 94.3631 48.4395 93.8903 48.6401 93.4315L48.7834 93.4128Z" fill="#757575" stroke="#263238" stroke-linecap="round" stroke-linejoin="round"/>
<path d="M48.2663 95.8256H56.1332C56.3018 95.8106 56.46 95.7515 56.5837 95.6571C56.6444 95.5476 56.6691 95.4272 56.6554 95.3077H48.2074C48.2202 95.5926 48.2663 95.8256 48.2663 95.8256Z" fill="#757575" stroke="#263238" stroke-linecap="round" stroke-linejoin="round"/>
<path d="M29.9239 34.528C30.3565 34.3574 30.5972 33.6814 30.4692 32.9139C30.3284 32.059 29.7857 31.4142 29.2609 31.4725C28.8461 31.5161 28.5645 31.9862 28.5338 32.5998L29.9239 34.528Z" fill="#263238" stroke="#263238" stroke-linecap="round" stroke-linejoin="round"/>
<path d="M18.6881 29.744C18.9253 29.5044 19.0706 29.2134 19.1061 28.9072C19.1416 28.6011 19.0657 28.2932 18.8878 28.0218C18.2913 26.9984 13.7217 27.0525 12.0654 28.991C10.409 30.9296 12.1012 33.1968 14.3694 32.864C16.1281 32.6082 18.1505 30.549 18.6881 29.744Z" fill="white" stroke="#263238" stroke-linecap="round" stroke-linejoin="round"/>
<path d="M12.0576 28.989C12.0856 29.4468 12.2308 29.8948 12.4838 30.3045C12.7368 30.7142 13.0921 31.0766 13.5271 31.3685C15.017 32.3814 16.1818 32.1859 16.1818 32.1859" stroke="#263238" stroke-linecap="round" stroke-linejoin="round"/>
<path d="M12.4391 28.7206C12.4391 28.7206 13.6884 29.8314 14.8941 30.289C15.5958 30.5536 16.2795 30.8486 16.9421 31.173" stroke="#263238" stroke-linecap="round" stroke-linejoin="round"/>
<path d="M12.7207 28.392C12.7207 28.392 14.4513 28.0322 15.9821 28.3275C16.9243 28.5296 17.7324 29.022 18.2349 29.7003" stroke="#263238" stroke-linecap="round" stroke-linejoin="round"/>
<path d="M27.9655 30.0477C27.9655 30.0477 28.6874 31.0107 28.841 31.7117C28.9946 32.4126 28.841 32.9264 29.097 33.3445C29.353 33.7626 30.377 34.3491 30.1773 34.7256C29.9776 35.1021 29.2506 35.3496 29.2506 35.3496C29.2506 35.3496 28.1677 37.2757 27.6019 37.8622C27.0362 38.4488 24.8704 37.8622 24.8704 37.8622L24.8192 38.7837L20.5952 38.1597C20.5952 38.1597 21.0586 37.6147 20.2855 36.945C19.5123 36.2752 17.193 34.0142 19.8733 31.8386C22.5536 29.6629 27.0899 29.796 27.9655 30.0477Z" fill="white" stroke="#263238" stroke-linecap="round" stroke-linejoin="round"/>
<path d="M24.873 37.8768L23.1271 37.6168L24.8218 38.7983L24.873 37.8768Z" fill="#263238" stroke="#263238" stroke-linecap="round" stroke-linejoin="round"/>
<path d="M28.1216 30.3244C27.7979 29.8311 27.3836 29.3808 26.8928 28.989C25.3568 27.8034 21.9264 27.6432 19.1437 29.1492C16.361 30.6551 14.5075 34.8005 16.0973 36.3064C17.687 37.8124 21.2634 36.8452 21.2634 36.8452C21.2634 36.8452 20.6003 34.6924 21.463 34.476C22.3258 34.2597 23.1194 34.5301 23.255 34.0476C23.3907 33.565 23.1885 32.3253 24.5146 31.6244C25.8406 30.9234 27.5584 31.2354 28.1216 30.3244Z" fill="white" stroke="#263238" stroke-linecap="round" stroke-linejoin="round"/>
<path d="M21.1328 35.984C21.1328 35.984 20.0064 36.7037 17.8048 36.1151C15.6032 35.5264 15.7133 33.7272 15.7133 33.7272" stroke="#263238" stroke-linecap="round" stroke-linejoin="round"/>
<path d="M16.1434 32.579C16.1334 33.0303 16.2994 33.4725 16.6176 33.8423C16.9359 34.2122 17.3899 34.4908 17.9149 34.6382C19.8042 35.2269 20.7718 34.867 20.7718 34.867" stroke="#263238" stroke-linecap="round" stroke-linejoin="round"/>
<path d="M16.6246 31.6306C16.8379 32.1253 17.1943 32.5711 17.6638 32.9306C18.1334 33.29 18.7024 33.5525 19.3229 33.696C19.8244 33.8274 20.338 33.9261 20.8589 33.9914" stroke="#263238" stroke-linecap="round" stroke-linejoin="round"/>
<path d="M17.0675 30.9753C18.1399 31.5264 19.2718 31.9971 20.4493 32.3814C22.2208 32.9389 23.831 32.0881 23.831 32.0881" stroke="#263238" stroke-linecap="round" stroke-linejoin="round"/>
<path d="M17.9534 30.1267C17.9534 30.1267 18.2759 30.6488 21.5758 30.3555C24.8756 30.0622 26.4398 30.4242 26.7265 30.9442" stroke="#263238" stroke-linecap="round" stroke-linejoin="round"/>
<path d="M18.5984 29.5048C19.5981 29.3254 20.5797 29.0848 21.5347 28.7851C23.5469 28.1965 26.6982 28.5293 28.1216 30.3243" stroke="#263238" stroke-linecap="round" stroke-linejoin="round"/>
<path d="M22.1901 34.8546C22.1901 34.8546 21.7267 33.3986 20.6541 33.3986C19.5814 33.3986 19.927 35.1749 20.7206 35.8738C21.5142 36.5726 21.9929 36.192 21.9929 36.192" fill="white"/>
<path d="M22.1901 34.8546C22.1901 34.8546 21.7267 33.3986 20.6541 33.3986C19.5814 33.3986 19.927 35.1749 20.7206 35.8738C21.5142 36.5726 21.9929 36.192 21.9929 36.192" stroke="#263238" stroke-linecap="round" stroke-linejoin="round"/>
<path d="M25.7024 35.4453C25.7024 35.4453 26.3629 36.3605 27.4944 36.1463" stroke="#263238" stroke-linecap="round" stroke-linejoin="round"/>
<path d="M28.6125 33.3939C28.7782 32.5429 28.0635 31.7439 27.0161 31.6093C25.9688 31.4747 24.9854 32.0554 24.8197 32.9064C24.654 33.7573 25.3687 34.5563 26.4161 34.691C27.4634 34.8256 28.4468 34.2449 28.6125 33.3939Z" fill="#263238" stroke="#263238" stroke-linecap="round" stroke-linejoin="round"/>
<path d="M25.0394 33.2384L21.6602 33.8853" stroke="#263238" stroke-linecap="round" stroke-linejoin="round"/>
<path d="M28.4596 32.889L29.2532 32.7267" stroke="#263238" stroke-linecap="round" stroke-linejoin="round"/>
<path d="M21.993 88.6683V92.1128H18.2836V88.6143L21.993 88.6683Z" fill="white" stroke="#263238" stroke-linecap="round" stroke-linejoin="round"/>
<path d="M25.3031 89.0448L25.2366 91.1976L27.2257 91.8424L28.4827 91.1976V88.7224L25.3031 89.0448Z" fill="white" stroke="#263238" stroke-linecap="round" stroke-linejoin="round"/>
<path d="M28.7489 42.6026C28.7489 42.6026 30.8609 43.5885 31.1757 44.8677C31.4906 46.1469 32.1204 50.8311 32.8525 52.2787C33.5847 53.7264 33.9021 54.6645 33.4823 55.0909C33.2964 55.2986 33.1635 55.5344 33.0914 55.7844C33.0193 56.0345 33.0094 56.2937 33.0625 56.5469C33.1674 56.888 34.1121 57.1439 33.6922 57.8261C33.2724 58.5083 32.7501 59.1885 32.7501 59.1885V68.3051C32.7501 69.1579 31.4906 70.1771 31.1757 70.4351C30.8609 70.693 30.3361 69.7549 30.3361 69.0727C30.3361 68.3904 30.1261 52.7135 29.8241 51.5216C29.522 50.3298 27.7249 42.8293 27.7249 42.8293C27.7249 42.8293 27.9988 42.1283 28.7489 42.6026Z" fill="#4081FF" stroke="#263238" stroke-linecap="round" stroke-linejoin="round"/>
<path d="M31.1757 70.4267C31.4905 70.173 32.7501 69.1496 32.7501 68.2968V60.5904C31.9059 60.7171 31.0435 60.743 30.1901 60.6674C30.2771 64.7566 30.3283 68.7294 30.3283 69.0643C30.336 69.7466 30.8608 70.6826 31.1757 70.4267Z" fill="white" stroke="#263238" stroke-linecap="round" stroke-linejoin="round"/>
<path d="M16.0308 64.4509L18.0788 89.7437L22.1748 89.6896L24.832 64.0203L25.2314 64.0744L25.0317 89.6355L28.6157 89.5294L32.3252 65.52C32.3252 65.52 31.529 60.0309 30.7892 58.7392C30.3267 57.9369 29.723 57.1935 28.9972 56.5323H18.3501C18.3501 56.5323 16.5607 58.9618 16.0308 64.4509Z" fill="#263238" stroke="#263238" stroke-linecap="round" stroke-linejoin="round"/>
<path d="M24.7732 40.6661C24.7732 40.6661 26.8928 41.7955 27.3562 42.7648C27.8196 43.7341 29.5424 57.0794 29.5424 57.2936C29.5424 57.5079 26.3629 57.4559 24.5095 57.5016C22.656 57.5474 21.993 57.5557 21.993 57.5557C21.993 57.5557 19.5431 44.4247 19.0772 43.0789C18.6112 41.7331 19.0772 41.1965 19.6071 40.7659C20.137 40.3354 20.9997 40.2272 21.3991 40.065C21.7984 39.9027 24.7732 40.6661 24.7732 40.6661Z" fill="white" stroke="#263238" stroke-linecap="round" stroke-linejoin="round"/>
<path d="M25.5028 41.5272C25.5028 41.5272 27.0925 44.3789 27.9527 50.8872C28.4647 54.86 28.3495 65.7405 28.3495 65.7405C28.5844 65.9034 28.8737 66.0058 29.1805 66.0347C29.4873 66.0636 29.7978 66.0177 30.0724 65.9028C31.1113 65.5843 32.1731 65.3176 33.2519 65.104C33.2519 65.104 31.9924 58.1069 31.9283 55.6858C31.8643 53.2647 30.4692 46.2676 29.8087 44.277C29.1482 42.2864 28.8794 42.0181 27.8861 41.5335C26.8928 41.0488 25.3696 40.8866 25.3696 40.8866L25.5028 41.5272Z" fill="#4081FF" stroke="#263238" stroke-linecap="round" stroke-linejoin="round"/>
<path d="M25.6359 41.3109C25.6359 41.3109 26.0327 39.805 25.9661 39.2122C25.8996 38.6194 25.6973 38.5715 24.1076 38.5175C22.5178 38.4634 20.6669 37.4359 20.137 37.9746C19.6071 38.5133 19.4765 40.5039 19.8068 40.768C20.137 41.0322 21.5041 41.7643 23.6263 41.9224C24.3789 41.9827 25.4362 41.7415 25.6359 41.3109Z" fill="white" stroke="#263238" stroke-linecap="round" stroke-linejoin="round"/>
<path d="M19.6736 40.5038C19.6736 40.5038 15.5776 42.6566 14.7072 43.4637C13.8368 44.2707 15.5008 55.8958 15.5673 58.8016C15.5857 60.7796 15.4532 62.7566 15.1705 64.7213C16.5248 65.2411 17.9186 65.6899 19.3433 66.065C20.9763 66.4789 22.7187 66.5163 24.3763 66.1731C24.3763 66.1731 23.5161 55.4653 23.383 52.3432C23.2499 49.2211 21.9264 43.8402 21.463 42.6026C20.9997 41.365 19.6736 40.5038 19.6736 40.5038Z" fill="#4081FF" stroke="#263238" stroke-linecap="round" stroke-linejoin="round"/>
<path d="M19.6071 40.1815C19.6071 40.1815 15.7005 42.2802 15.9642 42.5485C16.2279 42.8168 18.0122 49.9762 18.0122 53.5725C18.0122 57.1688 18.2119 64.2824 18.2119 64.2824C18.2119 64.2824 19.4714 64.2824 20.3981 64.3365C21.3248 64.3906 23.3114 64.1285 23.3114 64.1285C23.3114 64.1285 22.6483 56.7029 22.6483 52.936C22.6483 49.1691 20.9946 43.4096 20.6003 42.4944C20.2061 41.5792 19.6071 40.1815 19.6071 40.1815Z" fill="#263238" stroke="#263238" stroke-linecap="round" stroke-linejoin="round"/>
<path d="M25.7024 41.0426C25.7024 41.0426 27.2256 47.501 27.8861 51.6984C28.5466 55.8958 29.2787 60.8504 29.2787 61.6533V63.6979C29.2787 63.6979 30.5357 63.8602 30.999 63.8602C31.3852 63.8372 31.765 63.7671 32.1254 63.6522C32.1254 63.6522 31.1322 56.4949 30.8685 53.2126C30.6048 49.9304 29.2122 43.7424 28.7488 42.6046L28.2854 41.4752C28.2854 41.4752 26.624 40.768 25.7024 41.0426Z" fill="#263238" stroke="#263238" stroke-linecap="round" stroke-linejoin="round"/>
<path d="M16.0308 78.6594L6.30275 76.5606C6.30275 76.5606 5.57315 79.0899 4.91267 80.1112C4.25219 81.1325 3.77859 82.9088 3.97827 83.824C4.17795 84.7392 5.36835 85.332 6.29507 85.6003C7.22179 85.8686 14.3104 87.5368 16.0973 87.4307C17.8842 87.3246 18.1453 86.139 17.9533 85.1157C17.7613 84.0923 16.0308 78.6594 16.0308 78.6594Z" fill="#263238" stroke="#263238" stroke-linecap="round" stroke-linejoin="round"/>
<path d="M17.9533 85.1157C17.7537 84.0944 16.0308 78.6677 16.0308 78.6677L15.4266 78.5367C15.3191 78.9776 13.97 84.4834 13.7805 85.877C13.6807 86.5967 13.9239 87.0251 14.3386 87.2955C14.9168 87.3945 15.5065 87.4426 16.0973 87.4391C17.8868 87.3226 18.1505 86.1391 17.9533 85.1157Z" fill="#4C4C4C" stroke="#263238" stroke-linecap="round" stroke-linejoin="round"/>
<path d="M10.6675 68.432L7.95903 78.0167C7.93789 78.0903 7.88493 78.1554 7.80977 78.2C7.73462 78.2447 7.64225 78.266 7.54943 78.26C7.49317 78.2558 7.43872 78.2417 7.38986 78.2186C7.341 78.1955 7.29891 78.1641 7.26651 78.1265C7.23411 78.0889 7.21217 78.046 7.20223 78.0008C7.1923 77.9556 7.19459 77.9092 7.20895 77.8648L10.537 67.6728L13.6499 68.1034L14.9299 79.1856C14.935 79.2351 14.9257 79.2849 14.9027 79.331C14.8798 79.377 14.8437 79.418 14.7976 79.4506C14.7515 79.4832 14.6965 79.5066 14.6372 79.5187C14.5779 79.5308 14.516 79.5315 14.4563 79.5205L14.4 79.5101C14.3186 79.495 14.2455 79.4588 14.1915 79.4071C14.1375 79.3553 14.1056 79.2908 14.1005 79.2231L13.3325 68.5859L10.6675 68.432Z" fill="#263238" stroke="#263238" stroke-linecap="round" stroke-linejoin="round"/>
<path d="M15.5008 42.925C15.5008 42.925 12.7206 43.68 12.3213 44.4871C11.9219 45.2941 11.4611 51.6443 11.264 53.1503C11.0669 54.6562 11.0669 55.0347 11.0669 55.0347C11.0669 55.0347 9.41056 55.6795 9.6768 56.5407C9.94304 57.4018 10.9338 58.1548 10.9338 58.3711C10.9338 58.5874 11.3306 65.2579 11.3306 65.2579C11.3306 65.2579 10.0736 68.4882 10.3373 68.7565C10.601 69.0248 11.5968 69.3493 11.7299 69.5095C11.863 69.6696 12.5901 70.2624 12.9203 70.0482C13.1124 69.9256 13.2499 69.7554 13.312 69.5636L13.5091 68.9728C13.5091 68.9728 14.3053 69.6176 14.5024 69.6176C14.6995 69.6176 14.1722 68.38 14.1722 67.573C14.1722 66.7659 13.312 65.6344 13.312 65.4202C13.312 65.2059 14.1773 58.864 14.1773 58.864C14.1773 58.864 15.5008 57.9488 15.6339 57.2C15.767 56.4512 15.4342 55.5839 15.5674 55.3156C15.7005 55.0472 16.1638 54.4544 16.2304 53.9157C16.297 53.377 15.767 52.572 15.7005 52.1415C15.6339 51.7109 16.1638 45.7371 16.1638 45.7371" fill="#4081FF"/>
<path d="M15.5008 42.925C15.5008 42.925 12.7206 43.68 12.3213 44.4871C11.9219 45.2941 11.4611 51.6443 11.264 53.1503C11.0669 54.6562 11.0669 55.0347 11.0669 55.0347C11.0669 55.0347 9.41056 55.6795 9.6768 56.5407C9.94304 57.4018 10.9338 58.1548 10.9338 58.3711C10.9338 58.5874 11.3306 65.2579 11.3306 65.2579C11.3306 65.2579 10.0736 68.4882 10.3373 68.7565C10.601 69.0248 11.5968 69.3493 11.7299 69.5095C11.863 69.6696 12.5901 70.2624 12.9203 70.0482C13.1124 69.9256 13.2499 69.7554 13.312 69.5636L13.5091 68.9728C13.5091 68.9728 14.3053 69.6176 14.5024 69.6176C14.6995 69.6176 14.1722 68.38 14.1722 67.573C14.1722 66.7659 13.312 65.6344 13.312 65.4202C13.312 65.2059 14.1773 58.864 14.1773 58.864C14.1773 58.864 15.5008 57.9488 15.6339 57.2C15.767 56.4512 15.4342 55.5839 15.5674 55.3156C15.7005 55.0472 16.1638 54.4544 16.2304 53.9157C16.297 53.377 15.767 52.572 15.7005 52.1415C15.6339 51.7109 16.1638 45.7371 16.1638 45.7371" stroke="#263238" stroke-linecap="round" stroke-linejoin="round"/>
<path d="M11.7273 69.5094C11.8579 69.6717 12.5875 70.2624 12.9177 70.0482C13.1107 69.9259 13.2492 69.7557 13.312 69.5635L13.5091 68.9728C13.5091 68.9728 14.3053 69.6176 14.5024 69.6176C14.6995 69.6176 14.1721 68.38 14.1721 67.573C14.1721 66.7659 13.312 65.6344 13.312 65.4202C13.312 65.2746 13.7037 62.3272 13.9597 60.4282L11.0285 60.2451C11.1462 62.2877 11.3229 65.2558 11.3229 65.2558C11.3229 65.2558 10.0659 68.4861 10.3296 68.7544C10.5933 69.0227 11.5942 69.3493 11.7273 69.5094Z" fill="white" stroke="#263238" stroke-linecap="round" stroke-linejoin="round"/>
<path d="M21.3966 91.8965C21.3966 91.8965 19.0132 91.5741 18.6138 91.5741C18.2145 91.5741 16.4942 93.781 16.2305 94.64C15.9668 95.4991 16.7604 95.8235 16.9575 95.8235H22.1902C22.1902 95.8235 22.9863 95.8235 23.0529 94.8002C23.1194 93.7768 22.5895 92.325 22.5895 91.9485C22.5895 91.572 22.9198 91.0874 22.7866 90.8191C22.6535 90.5507 21.4631 90.3906 21.3966 91.8965Z" fill="#4081FF" stroke="#263238" stroke-linecap="round" stroke-linejoin="round"/>
<path d="M23.0528 94.8022C23.0649 94.5027 23.0461 94.2028 22.9965 93.9058C22.7149 94.1741 22.5049 94.6795 22.1261 94.9104C21.5961 95.2328 20.2701 95.1184 20.0064 95.0726C19.7427 95.0269 19.0771 93.9952 18.7469 93.835C18.4166 93.6749 17.687 94.9104 17.687 94.9104H16.1792C16.1466 95.1129 16.2068 95.3182 16.3485 95.4869C16.4901 95.6557 16.7032 95.7763 16.9472 95.8256H22.1901C22.1901 95.8256 22.9862 95.8256 23.0528 94.8022Z" fill="white" stroke="#263238" stroke-linecap="round" stroke-linejoin="round"/>
<path d="M18.4525 91.9651C18.4525 91.9651 18.0071 89.5211 18.3399 89.415C18.6727 89.309 21.6448 89.0594 21.778 89.596C21.9111 90.1326 21.4042 92.0254 21.4042 92.0254L18.4525 91.9651Z" fill="white" stroke="#263238" stroke-linecap="round" stroke-linejoin="round"/>
<path d="M19.1566 89.44L19.1156 90.3822L20.731 90.4488L20.8564 89.44C20.2968 89.3378 19.7162 89.3378 19.1566 89.44Z" fill="#4081FF" stroke="#263238" stroke-linecap="round" stroke-linejoin="round"/>
<path d="M21.6934 92.3915L18.2835 92.3C18.253 92.2995 18.223 92.294 18.1951 92.284C18.1672 92.2739 18.1421 92.2595 18.1212 92.2415C18.1002 92.2235 18.0838 92.2023 18.073 92.1792C18.0622 92.156 18.0572 92.1313 18.0582 92.1066C18.0582 92.0814 18.0645 92.0566 18.0767 92.0335C18.089 92.0104 18.107 91.9897 18.1296 91.9725C18.1521 91.9553 18.1788 91.9421 18.2079 91.9337C18.2371 91.9253 18.268 91.9218 18.2989 91.9235L21.7088 92.013C21.7706 92.013 21.8298 92.0329 21.8735 92.0684C21.9172 92.1039 21.9418 92.152 21.9418 92.2022C21.9418 92.2524 21.9172 92.3006 21.8735 92.3361C21.8298 92.3716 21.7706 92.3915 21.7088 92.3915H21.6934Z" fill="white" stroke="#263238" stroke-linecap="round" stroke-linejoin="round"/>
<path d="M21.4887 92.8242L18.0787 92.7327C18.0174 92.731 17.9593 92.7098 17.9171 92.6736C17.875 92.6374 17.8521 92.5891 17.8535 92.5392C17.853 92.514 17.859 92.489 17.8712 92.4658C17.8833 92.4426 17.9013 92.4217 17.9239 92.4044C17.9466 92.3872 17.9734 92.374 18.0027 92.3657C18.032 92.3574 18.0632 92.3541 18.0941 92.3562L21.504 92.4456C21.5658 92.4456 21.6251 92.4656 21.6687 92.5011C21.7124 92.5366 21.737 92.5847 21.737 92.6349C21.737 92.6851 21.7124 92.7332 21.6687 92.7687C21.6251 92.8042 21.5658 92.8242 21.504 92.8242H21.4887Z" fill="white" stroke="#263238" stroke-linecap="round" stroke-linejoin="round"/>
<path d="M21.0944 93.2235L18.3117 93.132C18.2557 93.1253 18.2051 93.1011 18.1707 93.0646C18.1363 93.0281 18.1207 92.9822 18.1273 92.9365C18.1273 92.8325 18.2169 92.7431 18.3245 92.7555L21.1072 92.845C21.1629 92.8522 21.2131 92.8765 21.2473 92.9129C21.2816 92.9492 21.2974 92.9949 21.2915 93.0405C21.295 93.086 21.2763 93.1307 21.2393 93.165C21.2024 93.1993 21.1503 93.2203 21.0944 93.2235Z" fill="white" stroke="#263238" stroke-linecap="round" stroke-linejoin="round"/>
<path d="M27.2923 91.2517C27.2923 91.2517 25.106 90.4446 24.6427 90.8211C24.1793 91.1976 24.0462 91.4118 24.3867 91.5741C24.7271 91.7363 25.1828 91.9506 25.1828 91.9506C25.1828 91.9506 24.4532 94.6941 24.7195 95.0706C24.9245 95.3289 25.195 95.5488 25.5131 95.7154H34.6523C34.6523 95.7154 35.1822 95.5074 34.7188 94.7461C34.2555 93.9848 32.402 93.6166 31.6724 93.2402C30.9428 92.8637 29.5527 91.4638 29.4862 91.3037C29.4196 91.1435 29.819 89.6875 29.3556 89.5274C28.8923 89.3672 27.4331 89.5274 27.4996 89.9579C27.5723 90.3058 27.6837 90.6476 27.8324 90.9792L27.2923 91.2517Z" fill="#4081FF" stroke="#263238" stroke-linecap="round" stroke-linejoin="round"/>
<path d="M29.3018 93.1944C29.3965 93.3046 29.5348 93.3712 29.6116 93.3442L31.0708 92.8408C30.9274 92.7285 30.7789 92.6037 30.6356 92.4768L29.2685 92.9469C29.184 92.976 29.2071 93.0842 29.3018 93.1944Z" fill="white" stroke="#263238" stroke-linecap="round" stroke-linejoin="round"/>
<path d="M28.4801 92.352C28.5722 92.4623 28.7361 92.5247 28.818 92.4893L30.1364 92.0213C29.9905 91.8799 29.8599 91.7488 29.7549 91.6386L28.4749 92.092C28.3751 92.1128 28.3853 92.2376 28.4801 92.352Z" fill="white" stroke="#263238" stroke-linecap="round" stroke-linejoin="round"/>
<path d="M28.7361 92.5975C28.6337 92.6224 28.6439 92.7472 28.7361 92.8575C28.8283 92.9677 28.9921 93.028 29.074 92.9947L30.61 92.4498C30.4692 92.325 30.331 92.1981 30.203 92.0775L28.7361 92.5975Z" fill="white" stroke="#263238" stroke-linecap="round" stroke-linejoin="round"/>
<path d="M29.6781 91.5367C29.6115 91.3765 30.0928 89.4234 29.6295 89.2632C29.1661 89.1031 27.561 89.5295 27.4893 89.96C27.4227 90.3552 27.8221 90.9813 27.8221 90.9813L28.5491 92.0587C28.5491 92.0587 29.545 91.6989 29.6781 91.5367Z" fill="white" stroke="#263238" stroke-linecap="round" stroke-linejoin="round"/>
<path d="M28.3572 89.4733L28.6465 90.1472L29.394 89.9392L29.2276 89.2986C29.2276 89.2986 28.5645 89.232 28.3572 89.4733Z" fill="#4081FF" stroke="#263238" stroke-linecap="round" stroke-linejoin="round"/>
<path d="M34.7085 94.7481C34.5982 94.5859 34.4474 94.4442 34.2656 94.3321C34.2577 94.3463 34.2508 94.3609 34.2451 94.3758C34.112 94.7523 34.3117 95.1288 34.048 95.3451C33.7843 95.5614 32.4583 95.5073 31.3984 95.3992C30.3386 95.291 28.4826 94.8064 27.2256 94.4299C26.3967 94.2156 25.5114 94.1897 24.6656 94.355C24.6331 94.5956 24.6443 94.8388 24.6989 95.0768C24.7245 95.2405 24.8164 95.3927 24.96 95.5094C25.1037 95.6261 25.291 95.7008 25.4925 95.7216H34.6317C34.6317 95.7216 35.1719 95.5032 34.7085 94.7481Z" fill="white" stroke="#263238" stroke-linecap="round" stroke-linejoin="round"/>
<path d="M5.37598 95.8256H124.672" stroke="#263238" stroke-width="0.908269" stroke-linecap="round" stroke-linejoin="round"/>
</svg>
